<svg xmlns="http://www.w3.org/2000/svg" width="216.012" height="216.013" viewBox="0 0 216.012 216.013">
  <path id="Icon_awesome-arrow-circle-right" data-name="Icon awesome-arrow-circle-right" d="M108.069.563A107.506,107.506,0,1,1,.563,108.069,107.488,107.488,0,0,1,108.069.563ZM95.541,62.812,128.27,94.2H49.114a10.379,10.379,0,0,0-10.4,10.4v6.936a10.379,10.379,0,0,0,10.4,10.4H128.27L95.541,153.325a10.416,10.416,0,0,0-.173,14.869l4.768,4.725a10.361,10.361,0,0,0,14.7,0l57.525-57.481a10.361,10.361,0,0,0,0-14.7L114.831,43.175a10.361,10.361,0,0,0-14.7,0L95.367,47.9a10.467,10.467,0,0,0,.173,14.912Z" transform="translate(-0.063 -0.063)" fill="none" stroke="#000" stroke-width="1" opacity="0.547"/>
</svg>
